<svg xmlns="http://www.w3.org/2000/svg" width="44.58" height="44.58" viewBox="0 0 44.58 44.58"><g transform="translate(-538.462 -926.767)"><path d="M86.96,86.96m-22.29,0A22.29,22.29,0,1,0,86.96,64.67,22.29,22.29,0,0,0,64.67,86.96Z" transform="translate(473.792 862.097)" fill="#e8e9ec" opacity="0.2"/><path d="M330.657,301.2a7.94,7.94,0,0,0-1.819-2.48,8.51,8.51,0,0,0-5.724-2.284h-3.549a8.515,8.515,0,0,0-5.724,2.284,7.993,7.993,0,0,0-1.82,2.48,7.135,7.135,0,0,0-.681,3.04,2.475,2.475,0,0,0,2.474,2.478h15.048a2.474,2.474,0,0,0,2.472-2.476,7.133,7.133,0,0,0-.68-3.038Zm-9.318-5.142a6.031,6.031,0,1,0-6.021-6.033A6.032,6.032,0,0,0,321.339,296.063Z" transform="translate(239.414 653.696)" fill="#e8e9ec" opacity="0.6"/></g></svg>