<svg xmlns="http://www.w3.org/2000/svg" width="44.43" height="44.43" viewBox="0 0 44.43 44.43"><g transform="translate(-160 -926.767)"><path d="M22.215,22.215,0,22.215A22.215,22.215,0,1,0,22.215,0,22.215,22.215,0,0,0,0,22.215Z" transform="translate(160 926.767)" fill="#e8e9ec" opacity="0.2"/><path d="M281.1,309.1a3.332,3.332,0,0,1-.6,1.828,5.142,5.142,0,0,1-1.455,1.49c-2.974,2.1-4.826,3.385-5.554,3.926a2.513,2.513,0,0,1-.529.339c-.264.2-.462.338-.659.474l-.6.406a3.059,3.059,0,0,1-.661.339,1.372,1.372,0,0,1-1.19,0,2.052,2.052,0,0,1-.661-.339l-.6-.406c-.2-.136-.4-.271-.661-.474s-.4-.339-.529-.339c-1.058-.744-2.049-1.49-3.107-2.234-1.322-.949-2.181-1.557-2.445-1.693a6.684,6.684,0,0,1-1.257-1.423,2.745,2.745,0,0,1-.661-1.624,2.288,2.288,0,0,1,.464-1.557,1.691,1.691,0,0,1,1.388-.61h17.388a1.938,1.938,0,0,1,1.322.541A1.718,1.718,0,0,1,281.1,309.1Zm0,3.521v9.614a1.919,1.919,0,0,1-.529,1.354,1.679,1.679,0,0,1-1.322.541h-17.39a1.825,1.825,0,0,1-1.322-.541A1.766,1.766,0,0,1,260,322.23v-9.614A6.259,6.259,0,0,0,261.2,313.7c2.842,1.964,4.826,3.385,5.883,4.2.332.271.726.541,1.123.813a5.8,5.8,0,0,0,1.125.61,3.376,3.376,0,0,0,2.645,0,5.74,5.74,0,0,0,1.123-.61c.4-.272.728-.541,1.125-.811,1.322-1.017,3.306-2.371,5.885-4.2C280.369,313.36,280.766,313.022,281.1,312.616Z" transform="translate(-88.437 633.224)" fill="#e8e9ec" opacity="0.6"/></g></svg>