<?xml version="1.0" standalone="no"?><!DOCTYPE svg PUBLIC "-//W3C//DTD SVG 1.1//EN" "http://www.w3.org/Graphics/SVG/1.1/DTD/svg11.dtd"><svg t="1588313344200" class="icon" viewBox="0 0 1024 1024" version="1.1" xmlns="http://www.w3.org/2000/svg" p-id="5381" xmlns:xlink="http://www.w3.org/1999/xlink" width="200" height="200"><defs><style type="text/css"></style></defs><path d="M512 960.02C264.96 960.02 63.98 759.04 63.98 512S264.96 63.98 512 63.98 960.02 264.96 960.02 512 759.04 960.02 512 960.02z m0-876.45C275.76 83.57 83.56 275.76 83.56 512S275.76 940.43 512 940.43 940.43 748.24 940.43 512C940.44 275.76 748.24 83.57 512 83.57z" fill="#8a8a8a" p-id="5382"></path><path d="M768.01 444.26c0-61.56-49.9-111.46-111.46-111.46h-289.1c-61.56 0-111.46 49.9-111.46 111.46v135.49c0 61.56 49.9 111.46 111.46 111.46h289.09c61.56 0 111.46-49.9 111.46-111.46V444.26z m-182.4 74.57l-115.29 63.23c-5.01 2.71-9.52-0.92-9.52-6.62v-129.8c0-5.77 4.65-9.39 9.66-6.54l116.09 66.56c5.13 2.93 4.25 10.36-0.94 13.17z" fill="#8a8a8a" p-id="5383"></path></svg>