<svg xmlns="http://www.w3.org/2000/svg" width="44" height="44" viewBox="0 0 44 44">
  <g id="YouTube" transform="translate(-63.98 -63.98)">
    <path id="路径_324" data-name="路径 324" d="M85.98,107.98a22,22,0,1,1,22-22A22.025,22.025,0,0,1,85.98,107.98Zm0-43.038A21.038,21.038,0,1,0,107.018,85.98,21.062,21.062,0,0,0,85.98,64.942Z" transform="translate(0 0)" fill="#668c97"/>
    <path id="路径_325" data-name="路径 325" d="M281.179,338.26a5.471,5.471,0,0,0-5.483-5.46H261.473a5.471,5.471,0,0,0-5.483,5.46V344.9a5.471,5.471,0,0,0,5.483,5.46H275.7a5.471,5.471,0,0,0,5.483-5.46V338.26Zm-8.973,3.653-5.672,3.1c-.246.133-.468-.045-.468-.324v-6.358c0-.283.229-.46.475-.32l5.711,3.26A.37.37,0,0,1,272.206,341.913Z" transform="translate(-182.604 -255.598)" fill="#668c97"/>
  </g>
</svg>
