<svg xmlns="http://www.w3.org/2000/svg" width="44" height="44" viewBox="0 0 44 44"><g opacity="0.4"><path d="M22,44A22,22,0,1,0,0,22,22,22,0,0,0,22,44Zm0-1.222A20.778,20.778,0,1,1,42.778,22,20.778,20.778,0,0,1,22,42.778Z" fill="#fff"/><path d="M254.408,289.424a6.288,6.288,0,0,1-2.337.908,5.95,5.95,0,0,0,1.785-3.232,6.751,6.751,0,0,1-2.575,1.416,3.614,3.614,0,0,0-2.964-1.853c-2.242,0-4.058,2.627-4.057,5.866a9.625,9.625,0,0,0,.1,1.344c-3.264-.24-6.3-2.471-8.365-6.138a7.9,7.9,0,0,0-.552,2.96,6.844,6.844,0,0,0,1.808,4.885,3.209,3.209,0,0,1-1.835-.745v.073c0,2.793,1.358,5.2,3.253,5.755a3.067,3.067,0,0,1-1.068.2,3.8,3.8,0,0,1-.766-.089c.533,2.387,2.057,4.021,3.793,4.068a6.737,6.737,0,0,1-5.037,2.505,5.688,5.688,0,0,1-.98-.073,9.123,9.123,0,0,0,6.231,2.632c7.462,0,11.545-8.934,11.545-16.685,0-.255,0-.509-.012-.763A11.774,11.774,0,0,0,254.408,289.424Z" transform="translate(-222.51 -276.284)" fill="#fff"/></g></svg>