<svg xmlns="http://www.w3.org/2000/svg" width="44" height="44" viewBox="0 0 44 44"><g transform="translate(0 0)" opacity="0.4"><path d="M282.123,305.531h4.81v15.239h-4.81Zm17.949-.147c-2.756,0-4.482,1.492-4.8,2.535v-2.388h-5.4c.067,1.271,0,15.239,0,15.239h5.4v-8.248a3.439,3.439,0,0,1,.12-1.244,2.756,2.756,0,0,1,2.6-1.866c1.88,0,2.729,1.4,2.729,3.472v7.887h5.459v-8.476C306.179,307.578,303.49,305.384,300.071,305.384Zm-15.634-7.031a2.676,2.676,0,1,0,1.994.682A2.69,2.69,0,0,0,284.437,298.353Z" transform="translate(-271.53 -287.421)" fill="#fff"/><path d="M22.02,44.015a22,22,0,1,1,21.994-22,22,22,0,0,1-21.994,22Zm0-42.322A20.328,20.328,0,1,0,42.343,22.019,20.328,20.328,0,0,0,22.02,1.693Z" transform="translate(-0.015 -0.015)" fill="#fff"/></g></svg>