<svg xmlns="http://www.w3.org/2000/svg" width="44" height="44" viewBox="0 0 44 44"><g opacity="0.4"><path d="M40.286,18.286a22,22,0,1,1-22,22A22,22,0,0,1,40.286,18.286Zm0,1.63a20.37,20.37,0,1,0,20.37,20.37A20.369,20.369,0,0,0,40.286,19.915Z" transform="translate(-18.286 -18.286)" fill="#fff"/><path d="M368.977,223.932v3.2h-3.263v3.915h3.263v11.633h6.7V231.049h4.5a37.143,37.143,0,0,0,.624-3.93H375.7v-2.677c0-.4.73-.939,1.452-.939h3.65v-4.075H375.84c-7.031,0-6.865,3.918-6.865,4.5Z" transform="translate(-351.258 -209.055)" fill="#fff"/></g></svg>